<svg width="519" height="185" viewBox="0 0 519 185" fill="none" xmlns="http://www.w3.org/2000/svg">
<path fill-rule="evenodd" clip-rule="evenodd" d="M206 155V49H221.893V155H206ZM273.678 82.92C280.864 82.92 286.438 84.6631 290.4 88.1493L283.075 99.3147C280.311 97.6187 276.902 96.7707 272.849 96.7707C267.966 96.7707 263.704 98.6787 260.065 102.495C256.426 106.311 254.606 111.187 254.606 117.123V155H239.266V84.3333H253.224L254.054 94.2267C259.582 86.6889 266.123 82.92 273.678 82.92ZM375.629 82.92C383.276 82.92 389.495 85.4169 394.286 90.4107C399.077 95.4044 401.472 101.859 401.472 109.773V155H385.994V111.611C385.994 107.371 384.635 103.837 381.917 101.011C379.199 98.184 375.767 96.7707 371.621 96.7707C367.199 96.7707 363.513 98.3018 360.565 101.364C357.617 104.426 356.143 108.172 356.143 112.6V155H340.665V111.611C340.665 107.371 339.306 103.837 336.588 101.011C333.87 98.184 330.438 96.7707 326.292 96.7707C321.962 96.7707 318.276 98.3018 315.236 101.364C312.196 104.426 310.676 108.172 310.676 112.6V155H295.336V84.3333H309.294L309.985 91.9653C315.42 85.9351 322.238 82.92 330.438 82.92C340.204 82.92 347.436 86.8302 352.135 94.6507C357.847 86.8302 365.679 82.92 375.629 82.92ZM428.105 71.6133C425.525 71.6133 423.314 70.6947 421.471 68.8573C419.629 67.02 418.707 64.7822 418.707 62.144C418.707 59.5058 419.629 57.2444 421.471 55.36C423.314 53.4756 425.525 52.5333 428.105 52.5333C430.685 52.5333 432.896 53.4756 434.738 55.36C436.581 57.2444 437.502 59.5058 437.502 62.144C437.502 64.7822 436.581 67.02 434.738 68.8573C432.896 70.6947 430.685 71.6133 428.105 71.6133ZM420.366 155V84.3333H435.706V155H420.366ZM492.051 82.92C499.883 82.92 506.332 85.464 511.399 90.552C516.466 95.64 519 102.236 519 110.339V155H503.522V112.176C503.522 107.748 502.025 104.073 499.03 101.152C496.036 98.2311 492.236 96.7707 487.629 96.7707C482.93 96.7707 478.945 98.3489 475.675 101.505C472.404 104.662 470.769 108.501 470.769 113.024V155H455.429V84.3333H469.387L470.216 92.672C475.836 86.1707 483.114 82.92 492.051 82.92Z" fill="#09AB82"/>
<path fill-rule="evenodd" clip-rule="evenodd" d="M70.3105 52.9483C70.283 51.8036 70.9563 50.6986 72.1822 49.8765C73.4081 49.0544 75.0863 48.5825 76.8475 48.5647C78.6447 48.5464 80.3765 49.0024 81.6475 49.8285C82.9184 50.6546 83.62 51.7802 83.5919 52.9483V79.253L112.051 50.5784C113.256 49.3364 114.893 48.615 116.617 48.5667C119.35 48.4913 121.849 50.1091 122.915 52.6433C123.981 55.1776 123.397 58.1108 121.443 60.035L83.5919 98.1729V118.72C83.593 118.789 83.593 118.859 83.5919 118.928V126.089L112.051 97.4147C113.256 96.1728 114.893 95.4513 116.617 95.403C119.35 95.3277 121.849 96.9455 122.915 99.4797C123.981 102.014 123.397 104.947 121.443 106.871L83.5919 145.009V180.386L77.4725 184.015L70.3105 179.73V142.344C70.3095 142.274 70.3095 142.205 70.3105 142.135V121.587L32.4834 83.4722C30.5394 81.5781 29.9311 78.6858 30.9455 76.1607C31.96 73.6356 34.3943 71.9827 37.0994 71.9823C38.8984 71.9825 40.6204 72.7178 41.8711 74.0199L70.3105 102.675V95.5073C70.3095 95.4377 70.3095 95.3681 70.3105 95.2987V52.9483ZM77.5 0L155 46V138L77.5 184L0 138V46L77.5 0Z" fill="url(#paint0_linear)"/>
<defs>
<linearGradient id="paint0_linear" x1="117.301" y1="286.84" x2="367.743" y2="86.727" gradientUnits="userSpaceOnUse">
<stop stop-color="#0CAD67"/>
<stop offset="1" stop-color="#05A6BD"/>
</linearGradient>
</defs>
</svg>
